<?xml version="1.0" standalone="no"?>
<!DOCTYPE svg PUBLIC "-//W3C//DTD SVG 1.1//EN" "http://www.w3.org/Graphics/SVG/1.1/DTD/svg11.dtd" >
<svg xmlns="http://www.w3.org/2000/svg" xmlns:xlink="http://www.w3.org/1999/xlink" version="1.1">
<metadata>
Created by FontForge 20170731 at Thu Oct  7 00:18:13 2010
 By Aleksey,,,
Copyright (c) Mark Simonson, 2005. All rights reserved.
</metadata>
<defs>
<font id="ProximaNovaSExCn-RegularIt" horiz-adv-x="378" >
  <font-face 
    font-family="Proxima Nova ScOsf ExCn Rg"
    font-weight="400"
    font-style="italic"
    font-stretch="normal"
    units-per-em="1000"
    panose-1="2 0 5 6 3 0 0 2 0 4"
    ascent="800"
    descent="-200"
    x-height="550"
    cap-height="667"
    bbox="-154 -199 754 872"
    underline-thickness="20"
    underline-position="-173"
    unicode-range="U+000D-FB02"
  />
<missing-glyph horiz-adv-x="477" 
d="M434 -90h-351v842h351v-842zM402 -60v782h-288v-782h288z" />
    <glyph glyph-name="fi" unicode="fi" horiz-adv-x="494" 
d="M73 0h-71l121 550h220l-14 -63h-148l-39 -174h142l-14 -62h-142zM384 0h-71l121 550h71z" />
    <glyph glyph-name="fl" unicode="fl" horiz-adv-x="607" 
d="M73 0h-71l121 550h220l-14 -63h-148l-39 -174h142l-14 -62h-142zM533 0h-220l121 550h71l-107 -487h148z" />
    <glyph glyph-name=".notdef" horiz-adv-x="477" 
d="M434 -90h-351v842h351v-842zM402 -60v782h-288v-782h288z" />
    <glyph glyph-name=".null" horiz-adv-x="0" 
 />
    <glyph glyph-name="nonmarkingreturn" horiz-adv-x="333" 
 />
    <glyph glyph-name="NUL" horiz-adv-x="0" 
 />
    <glyph glyph-name="NUL" horiz-adv-x="0" 
 />
    <glyph glyph-name="CR" unicode="&#xd;" horiz-adv-x="0" 
 />
    <glyph glyph-name="space" unicode=" " horiz-adv-x="171" 
 />
    <glyph glyph-name="exclam" unicode="!" horiz-adv-x="182" 
d="M198 550l-100 -389h-52l72 389h80zM41 -10q-19 0 -33 14t-14 33q0 23 17 39.5t40 16.5q19 0 33 -13.5t14 -33.5q0 -23 -17 -39.5t-40 -16.5z" />
    <glyph glyph-name="quotedbl" unicode="&#x22;" horiz-adv-x="336" 
d="M151 416h-34q21 203 21 209q2 24 15.5 38t34.5 14q16 0 27 -11t11 -28q0 -2 -5 -22zM293 416h-34q21 203 21 209q2 24 15.5 38t34.5 14q16 0 27 -11t11 -28q0 -2 -5 -22z" />
    <glyph glyph-name="numbersign" unicode="#" horiz-adv-x="367" 
d="M383 393l-19 -44h-56l-64 -144h56l-21 -45h-57l-71 -160h-54l74 160h-67l-71 -160h-54l73 160h-55l21 45h55l65 144h-55l19 44h56l71 157h54l-73 -157h67l71 157h52l-71 -157h54zM257 349h-67l-65 -144h66z" />
    <glyph glyph-name="dollar" unicode="$" horiz-adv-x="309" 
d="M61 -74l14 65q-64 11 -97 60l45 50q26 -42 66 -49l46 208q-20 23 -31 38.5t-21.5 42.5t-10.5 55q0 64 37.5 110.5t92.5 54.5l15 67h53l-16 -69q48 -11 78 -47l-42 -51q-19 29 -50 35l-42 -189q20 -24 31.5 -40.5t22.5 -47t11 -63.5q0 -59 -39 -108.5t-96 -57.5l-14 -64
h-53zM186 155q0 27 -15 55l-32 -151q47 27 47 96zM147 407q0 -26 14 -51l30 134q-19 -11 -31.5 -34t-12.5 -49z" />
    <glyph glyph-name="percent" unicode="%" horiz-adv-x="463" 
d="M270 459q0 -64 -36.5 -117t-89.5 -53q-42 0 -64.5 27t-22.5 76q0 64 36.5 117t89.5 53q42 0 64.5 -27t22.5 -76zM442 550l-367 -550h-40l366 550h41zM222 460q0 61 -40 61q-32 0 -54.5 -40t-22.5 -90q0 -61 41 -61q31 0 53.5 40.5t22.5 89.5zM420 158q0 -63 -36.5 -116
t-89.5 -53q-42 0 -65 27t-23 76q0 64 36.5 117t90.5 53q41 0 64 -27.5t23 -76.5zM372 160q0 61 -41 61q-31 0 -53.5 -40.5t-22.5 -89.5q0 -61 41 -61q31 0 53.5 40t22.5 90z" />
    <glyph glyph-name="ampersand" unicode="&#x26;" horiz-adv-x="341" 
d="M283 0h-68q-6 14 -16 40q-53 -51 -101 -51q-45 0 -73 30t-28 76q0 50 19 91.5t42 66t59 52.5q-7 38 -7 72q0 75 36 130t85 55q34 0 56 -24t22 -64q0 -32 -9.5 -58.5t-33 -51.5t-37 -37t-48.5 -39q12 -45 17 -62q10 -34 24 -74q28 50 58 119l48 -26q-41 -94 -84 -153
q13 -33 39 -92zM109 40q32 0 72 50q-12 31 -30 89q-15 45 -20 66q-68 -63 -68 -144q0 -25 12.5 -43t33.5 -18zM169 377q0 -20 1 -31q39 31 59.5 60t20.5 67q0 40 -23 40q-22 0 -40 -41.5t-18 -94.5z" />
    <glyph glyph-name="quotesingle" unicode="'" horiz-adv-x="195" 
d="M151 416h-34q21 203 21 209q2 24 15.5 38t34.5 14q16 0 27 -11t11 -28q0 -2 -5 -22z" />
    <glyph glyph-name="parenleft" unicode="(" horiz-adv-x="209" 
d="M96 -183l-51 -16q-25 97 -25 208q0 358 220 676l43 -25q-86 -150 -140 -335t-54 -358q0 -86 7 -150z" />
    <glyph glyph-name="parenright" unicode=")" horiz-adv-x="209" 
d="M112 669l51 16q26 -101 26 -208q0 -359 -221 -676l-43 25q86 150 140 335t54 358q0 86 -7 150z" />
    <glyph glyph-name="asterisk" unicode="*" horiz-adv-x="303" 
d="M205 392h-44l32 118l-111 -51l-12 38l114 41l-90 62l29 35l82 -72l20 114h44l-32 -117l110 51l13 -39l-113 -41l90 -62l-30 -34l-82 71z" />
    <glyph glyph-name="plus" unicode="+" 
d="M364 313h-133l-35 -155h-53l34 155h-133l11 49h133l33 148h53l-32 -148h133z" />
    <glyph glyph-name="comma" unicode="," horiz-adv-x="228" 
d="M122 38q0 -44 -32.5 -89t-78.5 -68l-29 30q28 15 51.5 38t30.5 46h-8q-16 0 -28 12t-12 31q0 22 17 38.5t40 16.5q21 0 35 -14.5t14 -40.5z" />
    <glyph glyph-name="hyphen" unicode="-" horiz-adv-x="235" 
d="M198 212h-175l13 60h175z" />
    <glyph glyph-name="period" unicode="." horiz-adv-x="227" 
d="M63 -10q-19 0 -33 14t-14 33q0 23 17 39.5t40 16.5q19 0 33 -13.5t14 -33.5q0 -23 -17 -39.5t-40 -16.5z" />
    <glyph glyph-name="slash" unicode="/" horiz-adv-x="200" 
d="M-5 -20h-54l303 707h55z" />
    <glyph glyph-name="zero" unicode="0" horiz-adv-x="412" 
d="M392 388q0 -44 -13 -107t-38.5 -131t-72 -115t-103.5 -47q-60 0 -96 43.5t-36 130.5q0 44 13 107t38.5 131t71.5 115t103 47q61 0 97 -43.5t36 -130.5zM316 394q0 100 -63 100q-37 0 -67 -44.5t-45.5 -105.5t-23.5 -111.5t-8 -76.5q0 -100 62 -100q37 0 67 44.5t46 105.5
t24 111.5t8 76.5z" />
    <glyph glyph-name="one" unicode="1" horiz-adv-x="292" 
d="M175 0h-75l99 450l-123 -106l-35 47l188 159h67z" />
    <glyph glyph-name="two" unicode="2" horiz-adv-x="384" 
d="M278 0h-281l14 64q154 124 220.5 208.5t66.5 148.5q0 35 -17.5 54.5t-48.5 19.5q-59 0 -105 -78l-47 43q69 102 159 102q65 0 102.5 -34t37.5 -93q0 -151 -264 -368h177z" />
    <glyph glyph-name="three" unicode="3" horiz-adv-x="390" 
d="M129 -129q-59 0 -102 34.5t-57 99.5l65 34q19 -100 94 -100q49 0 78.5 53.5t29.5 118.5q0 40 -21.5 60.5t-52.5 20.5q-23 0 -31 -1l16 69q7 -1 45 -1q50 0 78 47.5t28 109.5q0 76 -71 76q-60 0 -100 -71l-46 43q63 96 158 96q63 0 101 -34.5t38 -97.5q0 -71 -39 -131.5
t-99 -73.5q71 -27 71 -124q0 -88 -52.5 -158t-130.5 -70z" />
    <glyph glyph-name="four" unicode="4" horiz-adv-x="366" 
d="M311 58h-53l-39 -175h-75l39 175h-211l15 70l289 422h90l-94 -425h53zM197 125l73 330l-219 -330h146z" />
    <glyph glyph-name="five" unicode="5" horiz-adv-x="393" 
d="M130 -129q-121 0 -150 133l64 33q14 -98 87 -98q46 0 82.5 69t36.5 148q0 80 -61 80q-45 0 -92 -53l-52 24l76 343h273l-15 -67h-197l-50 -231q38 48 93 48q48 0 76.5 -36.5t28.5 -99.5q0 -113 -58 -203t-142 -90z" />
    <glyph glyph-name="six" unicode="6" horiz-adv-x="392" 
d="M165 -12q-67 0 -98 48t-31 127q0 55 15 135t43.5 168t83 149.5t121.5 61.5q45 0 79 -28t44 -75l-55 -44q-4 37 -23 58t-49 21q-98 0 -159 -263q-1 -3 -1.5 -6.5t-0.5 -5t-0.5 -4.5t-1.5 -6q52 92 120 92q47 0 77 -35.5t30 -99.5t-21.5 -129.5t-67.5 -114.5t-105 -49z
M170 56q35 0 61.5 40.5t38 88.5t11.5 88q0 35 -14.5 57t-44.5 22q-54 0 -104 -103q-10 -52 -10 -94q0 -99 62 -99z" />
    <glyph glyph-name="seven" unicode="7" horiz-adv-x="330" 
d="M78 -117h-83l281 600h-202l14 67h288l-12 -52z" />
    <glyph glyph-name="eight" unicode="8" horiz-adv-x="391" 
d="M161 -12q-148 0 -148 134q0 71 39 133t114 95q-28 21 -47 58t-19 78q0 74 50 132.5t122 58.5q58 0 98 -32.5t40 -100.5q0 -76 -42 -129t-100 -76q33 -25 51.5 -64.5t18.5 -81.5q0 -88 -51 -146.5t-126 -58.5zM223 370q42 17 75 58.5t33 107.5q0 73 -64 73
q-38 0 -65 -40.5t-27 -97.5q0 -31 14.5 -59t33.5 -42zM160 56q39 0 70.5 44t31.5 105q0 42 -17 72t-34 40q-47 -17 -83 -66t-36 -114q0 -41 19 -61t49 -20z" />
    <glyph glyph-name="nine" unicode="9" horiz-adv-x="392" 
d="M240 561q67 0 98 -48t31 -127q0 -55 -15 -135t-43.5 -168t-83 -149.5t-121.5 -61.5q-45 0 -79 28t-44 75l56 44q4 -37 22.5 -58t48.5 -21q98 0 159 263q2 6 2.5 12.5t1.5 9.5q-52 -92 -120 -92q-47 0 -77 35.5t-30 99.5t21.5 129.5t67.5 114.5t105 49zM236 493
q-35 0 -62 -40.5t-38.5 -88.5t-11.5 -88q0 -34 14.5 -56.5t44.5 -22.5q56 0 104 103q10 52 10 94q0 99 -61 99z" />
    <glyph glyph-name="colon" unicode=":" horiz-adv-x="226" 
d="M64 -10q-20 0 -33.5 13.5t-13.5 33.5q0 23 16.5 39.5t39.5 16.5q20 0 33.5 -13.5t13.5 -33.5q0 -23 -16.5 -39.5t-39.5 -16.5zM151 387q-19 0 -33 13.5t-14 33.5q0 23 17 39.5t40 16.5q20 0 33.5 -14t13.5 -34q0 -23 -17 -39t-40 -16z" />
    <glyph glyph-name="semicolon" unicode=";" horiz-adv-x="227" 
d="M122 38q0 -44 -32.5 -89t-78.5 -68l-29 30q28 15 51.5 38t30.5 46h-8q-16 0 -28 12t-12 31q0 22 17 38.5t40 16.5q21 0 35 -14.5t14 -40.5zM151 387q-19 0 -33 13.5t-14 33.5q0 23 17 39.5t40 16.5q20 0 33.5 -14t13.5 -34q0 -23 -17 -39t-40 -16z" />
    <glyph glyph-name="less" unicode="&#x3c;" 
d="M330 161l-287 149l11 49l353 149l-14 -61l-284 -116l233 -114z" />
    <glyph glyph-name="equal" unicode="=" 
d="M385 407h-321l12 49h320zM342 212h-321l12 49h320z" />
    <glyph glyph-name="greater" unicode="&#x3e;" 
d="M363 310l-353 -149l14 62l285 114l-234 115l12 56l287 -149z" />
    <glyph glyph-name="question" unicode="?" horiz-adv-x="273" 
d="M301 463q0 -38 -16 -69t-38.5 -52t-45 -39t-38.5 -39.5t-16 -44.5q0 -18 11 -34l-59 -25q-13 23 -13 52q0 30 14.5 56t35 44.5t41.5 37t35.5 43.5t14.5 54q0 24 -12 39.5t-38 15.5q-30 0 -58 -25l-28 44q49 41 103 41q48 0 77.5 -27t29.5 -72zM89 -10q-19 0 -33 14
t-14 33q0 23 17 39.5t40 16.5q19 0 33 -13.5t14 -33.5q0 -23 -17 -39.5t-40 -16.5z" />
    <glyph glyph-name="at" unicode="@" horiz-adv-x="599" 
d="M283 -70q-104 0 -166 77t-62 208q0 107 45 205t121.5 158.5t163.5 60.5q90 0 144.5 -65t54.5 -180q0 -128 -45.5 -218.5t-102.5 -90.5q-32 0 -52 19.5t-22 50.5l-1 7q-47 -77 -108 -77q-38 0 -64.5 29t-26.5 94q0 69 22 135t65 111t96 45q56 0 72 -72l11 56h63l-59 -278
q-3 -15 -3 -28q0 -42 30 -42q12 0 27 17.5t29.5 48.5t24.5 82.5t10 110.5q0 101 -45.5 156t-120.5 55q-77 0 -145.5 -57t-108 -147t-39.5 -185q0 -116 53 -184.5t143 -68.5q71 0 137 56l17 -26q-76 -63 -158 -63zM277 137q20 0 39.5 14t29 27.5t25.5 38.5l35 162
q-13 69 -54 69q-54 0 -88.5 -76.5t-34.5 -155.5t48 -79z" />
    <glyph glyph-name="A" unicode="A" horiz-adv-x="364" 
d="M303 0h-75l7 153h-143l-60 -153h-79l278 667h87zM240 220l17 357l-140 -357h123z" />
    <glyph glyph-name="B" unicode="B" horiz-adv-x="403" 
d="M172 0h-163l147 667h117q64 0 99.5 -37.5t35.5 -96.5q0 -69 -34.5 -127t-91.5 -69q33 -10 49.5 -43.5t16.5 -73.5q0 -86 -47 -153t-129 -67zM228 375q47 0 73.5 47.5t26.5 98.5q0 39 -20 59t-55 20h-36l-50 -225h61zM163 67q46 0 77 48t31 110q0 83 -77 83h-42l-53 -241
h64z" />
    <glyph glyph-name="C" unicode="C" horiz-adv-x="390" 
d="M175 -12q-65 0 -100.5 48t-35.5 141q0 61 15 141t44 163.5t81 140t117 56.5q62 0 93 -42.5t37 -111.5l-70 -14q-9 100 -66 100q-40 0 -74.5 -51.5t-55 -124.5t-32 -143.5t-11.5 -116.5q0 -118 63 -118q47 0 94 85l60 -28q-66 -125 -159 -125z" />
    <glyph glyph-name="D" unicode="D" horiz-adv-x="427" 
d="M136 0h-127l147 667h124q58 0 99 -50t41 -150q0 -30 -5.5 -72t-17.5 -96t-34.5 -105.5t-52 -95.5t-75 -71t-99.5 -27zM151 67h-2q50 0 90 50t61 120.5t31.5 131t10.5 97.5q0 68 -21.5 101t-54.5 33h-49l-118 -533h52z" />
    <glyph glyph-name="E" unicode="E" horiz-adv-x="352" 
d="M257 0h-248l147 667h248l-15 -67h-172l-50 -225h165l-15 -67h-165l-53 -241h172z" />
    <glyph glyph-name="F" unicode="F" horiz-adv-x="351" 
d="M84 0h-75l147 667h248l-15 -67h-172l-50 -225h165l-15 -67h-165z" />
    <glyph glyph-name="G" unicode="G" horiz-adv-x="411" 
d="M175 -12q-65 0 -100.5 47.5t-35.5 141.5q0 65 16 146.5t45.5 163t81 136.5t114.5 55t93.5 -42.5t33.5 -104.5l-66 -15q-7 94 -67 94q-39 0 -73 -50t-55 -121t-33 -142.5t-12 -122.5q0 -64 15.5 -91t48.5 -27q39 0 79 56l35 161h-89l14 67h158l-56 -255q-64 -97 -147 -97z
" />
    <glyph glyph-name="H" unicode="H" horiz-adv-x="436" 
d="M319 0h-75l68 309h-160l-68 -309h-75l147 667h75l-64 -290h160l64 290h75z" />
    <glyph glyph-name="I" unicode="I" horiz-adv-x="201" 
d="M84 0h-75l147 667h75z" />
    <glyph glyph-name="J" unicode="J" horiz-adv-x="321" 
d="M76 -12q-77 0 -112 51l37 57q23 -40 70 -40q37 0 58.5 21t31.5 68l116 522h75l-116 -525q-18 -81 -56 -117.5t-104 -36.5z" />
    <glyph glyph-name="K" unicode="K" horiz-adv-x="418" 
d="M353 0h-81l-78 292l-65 -89l-45 -203h-75l147 667h75l-73 -335l239 335h90l-238 -317z" />
    <glyph glyph-name="L" unicode="L" horiz-adv-x="333" 
d="M257 0h-248l147 667h75l-132 -600h172z" />
    <glyph glyph-name="M" unicode="M" horiz-adv-x="558" 
d="M441 0h-74l115 523l-242 -523h-30l-10 523l-116 -523h-75l147 667h100l10 -470l220 470h102z" />
    <glyph glyph-name="N" unicode="N" horiz-adv-x="436" 
d="M319 0h-72l-55 489l-108 -489h-75l147 667h75l54 -479l106 479h75z" />
    <glyph glyph-name="O" unicode="O" horiz-adv-x="434" 
d="M175 -12q-69 0 -102.5 52.5t-33.5 136.5q0 46 9 107t29.5 131t49 128t73 96.5t96.5 38.5q69 0 103 -53.5t34 -137.5q0 -59 -15.5 -139t-44.5 -163t-81.5 -140t-116.5 -57zM180 56q38 0 72.5 50t56 121t34 142t12.5 121q0 120 -65 120q-39 0 -73 -50t-55 -121.5t-33 -143
t-12 -121.5q0 -118 63 -118z" />
    <glyph glyph-name="P" unicode="P" horiz-adv-x="387" 
d="M84 0h-75l147 667h125q58 0 94.5 -42t36.5 -109q0 -62 -22 -117t-71 -92.5t-116 -37.5h-59zM217 600l-59 -264h52q57 0 89.5 53t32.5 121q0 44 -18.5 67t-49.5 23h-47z" />
    <glyph glyph-name="Q" unicode="Q" horiz-adv-x="434" 
d="M175 -12q-69 0 -102.5 52.5t-33.5 136.5q0 46 9 107t29.5 131t49 128t73 96.5t96.5 38.5q69 0 103 -53.5t34 -137.5q0 -109 -43.5 -255t-121.5 -209l8 -48l-59 -10l-5 29q-18 -6 -37 -6zM180 56q13 0 22 4l-24 149l60 10l17 -111q44 65 72 183.5t28 198.5q0 120 -65 120
q-39 0 -73 -50t-55 -121.5t-33 -143t-12 -121.5q0 -118 63 -118z" />
    <glyph glyph-name="R" unicode="R" horiz-adv-x="409" 
d="M311 0h-78l-27 269h-62l-60 -269h-75l147 667h123q59 0 96.5 -42.5t37.5 -107.5q0 -85 -40 -151.5t-97 -83.5zM217 600l-59 -264h53q58 0 90 53.5t32 122.5q0 44 -18 66t-49 22h-49z" />
    <glyph glyph-name="S" unicode="S" horiz-adv-x="354" 
d="M125 -12q-44 0 -82.5 19.5t-59.5 49.5l49 56q14 -26 39.5 -41.5t53.5 -15.5q42 0 73.5 36t31.5 96q0 35 -22 72t-48 65t-48 71t-22 89q0 80 53 136.5t123 56.5q80 0 123 -55l-44 -56q-29 43 -80 43q-42 0 -68.5 -33.5t-26.5 -80.5q0 -26 14 -53.5t34.5 -53t41 -53
t34.5 -63.5t14 -74q0 -89 -52.5 -150t-130.5 -61z" />
    <glyph glyph-name="T" unicode="T" horiz-adv-x="323" 
d="M145 0h-76l133 600h-105l14 67h287l-15 -67h-106z" />
    <glyph glyph-name="U" unicode="U" horiz-adv-x="437" 
d="M181 -12q-62 0 -100.5 37.5t-38.5 102.5q0 24 5 46l109 493h75l-110 -498q-4 -28 -4 -36q0 -38 19.5 -58t51.5 -20q36 0 58.5 26.5t35.5 87.5l110 498h75l-109 -495q-41 -184 -177 -184z" />
    <glyph glyph-name="V" unicode="V" horiz-adv-x="364" 
d="M171 0h-87l16 667h75l-28 -567l223 567h80z" />
    <glyph glyph-name="W" unicode="W" horiz-adv-x="548" 
d="M370 0h-80l44 515l-184 -515h-79l40 667h77l-47 -531l193 531h64l-42 -531l188 531h79z" />
    <glyph glyph-name="X" unicode="X" horiz-adv-x="368" 
d="M311 0h-80l-41 265l-153 -265h-87l213 343l-59 324h80l35 -254l143 254h88l-204 -331z" />
    <glyph glyph-name="Y" unicode="Y" horiz-adv-x="372" 
d="M170 0h-76l63 283l-65 384h78l38 -307l175 307h83l-234 -384z" />
    <glyph glyph-name="Z" unicode="Z" horiz-adv-x="340" 
d="M253 0h-274l14 66l298 534h-179l14 67h267l-13 -63l-301 -537h188z" />
    <glyph glyph-name="bracketleft" unicode="[" horiz-adv-x="182" 
d="M67 -190h-128l192 868h129l-11 -51h-76l-169 -766h75z" />
    <glyph glyph-name="backslash" unicode="\" horiz-adv-x="200" 
d="M89 -20v707h53v-707h-53z" />
    <glyph glyph-name="bracketright" unicode="]" horiz-adv-x="182" 
d="M50 -190h-129l12 51h75l169 766h-75l11 51h130z" />
    <glyph glyph-name="asciicircum" unicode="^" horiz-adv-x="330" 
d="M330 333h-53l-30 275l-152 -275h-57l194 334h52z" />
    <glyph glyph-name="underscore" unicode="_" horiz-adv-x="279" 
d="M207 -91h-284l12 51h284z" />
    <glyph glyph-name="grave" unicode="`" horiz-adv-x="146" 
d="M215 556h-46l-68 144h68z" />
    <glyph glyph-name="a" unicode="a" horiz-adv-x="314" 
d="M184 550h81l-10 -550h-73l6 124h-114l-48 -124h-75zM193 187l13 275l-110 -275h97z" />
    <glyph glyph-name="b" unicode="b" horiz-adv-x="341" 
d="M138 0h-136l121 550h97q56 0 89.5 -28.5t33.5 -80.5q0 -55 -27 -101.5t-76 -59.5q52 -22 52 -94t-40.5 -129t-113.5 -57zM87 63h49q37 0 60 38.5t23 86.5q0 30 -14 46.5t-39 16.5h-38zM181 487l-40 -174h47q34 0 56 36.5t22 78.5q0 59 -64 59h-21z" />
    <glyph glyph-name="c" unicode="c" horiz-adv-x="351" 
d="M155 -12q-127 0 -127 167q0 48 13 113t37.5 133t69.5 114.5t100 46.5q51 0 81 -31.5t36 -86.5l-63 -14q-8 69 -55 69q-34 0 -63.5 -41t-46.5 -99t-26.5 -112.5t-9.5 -90.5q0 -105 59 -105q25 0 42 17.5t36 55.5l55 -26q-29 -54 -60.5 -82t-77.5 -28z" />
    <glyph glyph-name="d" unicode="d" horiz-adv-x="386" 
d="M133 0h-131l121 550h87q159 0 159 -174q0 -55 -13.5 -116t-40 -121.5t-74.5 -99.5t-108 -39zM140 63h2q46 0 83 57.5t53.5 127t16.5 127.5q0 60 -23 86t-69 26h-22l-94 -424h53z" />
    <glyph glyph-name="e" unicode="e" horiz-adv-x="313" 
d="M222 0h-220l121 550h220l-14 -63h-148l-39 -174h142l-14 -62h-142l-41 -188h148z" />
    <glyph glyph-name="f" unicode="f" horiz-adv-x="311" 
d="M73 0h-71l121 550h220l-14 -63h-148l-39 -174h142l-14 -62h-142z" />
    <glyph glyph-name="g" unicode="g" horiz-adv-x="371" 
d="M160 -12q-132 0 -132 166q0 55 14 122t39.5 132.5t69.5 109.5t97 44q52 0 81 -32.5t35 -85.5l-62 -14q-10 69 -57 69q-32 0 -61 -40t-46 -97t-27 -113t-10 -95q0 -56 15.5 -79.5t46.5 -23.5q38 0 59 28l32 144h-71l14 60h135l-53 -241q-54 -54 -119 -54z" />
    <glyph glyph-name="h" unicode="h" horiz-adv-x="389" 
d="M279 0h-72l55 251h-133l-56 -251h-71l121 550h71l-52 -236h134l52 236h72z" />
    <glyph glyph-name="i" unicode="i" horiz-adv-x="183" 
d="M73 0h-71l121 550h71z" />
    <glyph glyph-name="j" unicode="j" horiz-adv-x="283" 
d="M62 -12q-75 0 -103 46l37 52q18 -35 60 -35q29 0 46 17t26 55l94 427h72l-96 -434q-15 -69 -48.5 -98.5t-87.5 -29.5z" />
    <glyph glyph-name="k" unicode="k" horiz-adv-x="370" 
d="M306 0h-81l-66 233l-49 -66l-37 -167h-71l121 550h71l-58 -268l199 268h81l-204 -261z" />
    <glyph glyph-name="l" unicode="l" horiz-adv-x="296" 
d="M222 0h-220l121 550h71l-107 -487h148z" />
    <glyph glyph-name="m" unicode="m" horiz-adv-x="490" 
d="M380 0h-70l91 415l-194 -415h-31l-11 415l-92 -415h-71l121 550h92l11 -387l182 387h93z" />
    <glyph glyph-name="n" unicode="n" horiz-adv-x="385" 
d="M275 0h-72l-41 400l-89 -400h-71l121 550h76l40 -390l86 390h71z" />
    <glyph glyph-name="o" unicode="o" horiz-adv-x="393" 
d="M155 -12q-60 0 -93.5 42t-33.5 123q0 43 11.5 105.5t35 133.5t69.5 120.5t105 49.5q60 0 94 -42t34 -123q0 -32 -6.5 -79t-23 -105.5t-41 -108t-64 -83t-87.5 -33.5zM158 51q37 0 67 44.5t46 106t24.5 114.5t8.5 82q0 101 -57 101q-36 0 -66.5 -44.5t-46.5 -106t-25 -115
t-9 -81.5q0 -101 58 -101z" />
    <glyph glyph-name="p" unicode="p" horiz-adv-x="333" 
d="M73 0h-71l121 550h97q58 0 92 -33t34 -94q0 -78 -45 -142t-124 -64h-56zM179 280h1q41 0 66 43.5t25 93.5q0 70 -64 70h-26l-46 -207h44z" />
    <glyph glyph-name="q" unicode="q" horiz-adv-x="393" 
d="M155 -12q-60 0 -93.5 42t-33.5 123q0 43 11.5 105.5t35 133.5t69.5 120.5t105 49.5q60 0 94 -42t34 -123q0 -48 -12.5 -116.5t-47 -149.5t-83.5 -117l6 -36l-58 -11l-4 24q-10 -3 -23 -3zM158 51q7 0 11 1l-18 114l58 11l13 -85q38 53 60 153t22 153q0 101 -57 101
q-36 0 -66.5 -44.5t-46.5 -106t-25 -115t-9 -81.5q0 -101 58 -101z" />
    <glyph glyph-name="r" unicode="r" horiz-adv-x="350" 
d="M263 0h-77l-23 217h-42l-48 -217h-71l121 550h101q56 0 89.5 -34.5t33.5 -93.5q0 -67 -34 -124t-83 -72zM169 280h12q41 0 66 44.5t25 91.5q0 35 -16 53t-43 18h-32l-46 -207h34z" />
    <glyph glyph-name="s" unicode="s" horiz-adv-x="309" 
d="M109 -12q-87 0 -131 63l45 50q31 -50 83 -50q34 0 57 30t23 74q0 30 -18 60.5t-39 52t-39 56t-18 72.5q0 69 43.5 117.5t105.5 48.5q70 0 111 -50l-42 -51q-25 38 -69 38q-29 0 -51.5 -28t-22.5 -64q0 -27 18 -56t40 -51.5t40 -61t18 -82.5q0 -65 -45 -116.5t-109 -51.5z
" />
    <glyph glyph-name="t" unicode="t" horiz-adv-x="272" 
d="M117 0h-71l107 487h-85l14 63h242l-14 -63h-85z" />
    <glyph glyph-name="u" unicode="u" horiz-adv-x="389" 
d="M158 -12q-63 0 -95.5 29t-32.5 81q0 33 8 65l85 387h71l-88 -400q-5 -23 -5 -36q0 -63 59 -63q31 0 50 25t31 79l87 395h72l-86 -385q-20 -88 -55.5 -132.5t-100.5 -44.5z" />
    <glyph glyph-name="v" unicode="v" horiz-adv-x="314" 
d="M144 0h-81l9 550h73l-20 -447l176 447h75z" />
    <glyph glyph-name="w" unicode="w" horiz-adv-x="480" 
d="M322 0h-74l27 404l-151 -404h-74l24 550h74l-29 -414l158 414h60l-25 -415l154 415h73z" />
    <glyph glyph-name="x" unicode="x" horiz-adv-x="324" 
d="M267 0h-77l-34 216l-128 -216h-80l178 280l-50 270h77l30 -206l119 206h80l-169 -269z" />
    <glyph glyph-name="y" unicode="y" horiz-adv-x="328" 
d="M146 0h-72l51 233l-59 317h75l36 -243l142 243h77l-199 -317z" />
    <glyph glyph-name="z" unicode="z" horiz-adv-x="292" 
d="M211 0h-238l12 56l247 431h-152l14 63h232l-12 -55l-248 -432h159z" />
    <glyph glyph-name="braceleft" unicode="{" horiz-adv-x="202" 
d="M88 -190h-24q-33 0 -57.5 22t-25.5 59q0 7 4 27l51 233q3 15 3 20q0 50 -39 50l11 46q51 0 67 70l52 236q23 105 121 105h30l-12 -51h-30q-42 0 -55 -54l-54 -247q-15 -69 -65 -88q29 -14 29 -54q0 -18 -4 -34l-51 -232q-2 -12 -2 -17q0 -19 9.5 -29.5t22.5 -10.5h31z
" />
    <glyph glyph-name="bar" unicode="|" horiz-adv-x="177" 
d="M134 -20h-51v707h51v-707z" />
    <glyph glyph-name="braceright" unicode="}" horiz-adv-x="202" 
d="M113 678h24q33 0 58 -22.5t25 -59.5q0 -6 -4 -26l-51 -233q-3 -15 -3 -21q0 -49 39 -49l-10 -46q-52 0 -68 -70l-52 -236q-23 -105 -121 -105h-30l12 51h30q42 0 55 54l54 247q15 69 65 88q-29 14 -29 54q0 18 4 34l51 232q2 12 2 17q0 19 -9.5 29.5t-22.5 10.5h-31z" />
    <glyph glyph-name="asciitilde" unicode="~" horiz-adv-x="394" 
d="M408 667l52 -5q-53 -237 -153 -237q-37 0 -52 30t-13 66t-2.5 66t-23.5 30q-52 0 -97 -194l-51 6q51 237 152 237q37 0 52 -30t13 -66.5t2.5 -66.5t23.5 -30q28 0 51 46t46 148z" />
    <glyph glyph-name="uni00A0" unicode="&#xa0;" horiz-adv-x="171" 
 />
    <glyph glyph-name="exclamdown" unicode="&#xa1;" horiz-adv-x="182" 
d="M-16 0l100 389h52l-72 -389h-80zM141 560q19 0 33 -14t14 -33q0 -23 -17 -39.5t-40 -16.5q-19 0 -33 13.5t-14 33.5q0 23 17 39.5t40 16.5z" />
    <glyph glyph-name="cent" unicode="&#xa2;" horiz-adv-x="351" 
d="M94 -93l19 87q-85 25 -85 161q0 47 12.5 111t36.5 130.5t67 114t96 50.5l13 57h53l-14 -64q63 -24 73 -110l-63 -14q-5 41 -25 58l-97 -434q30 12 58 70l55 -26q-27 -51 -56 -78.5t-71 -30.5l-18 -82h-54zM101 156q0 -74 27 -95l97 433q-38 -16 -68 -85t-43 -138
t-13 -115z" />
    <glyph glyph-name="sterling" unicode="&#xa3;" horiz-adv-x="314" 
d="M19 226l10 45h52q-12 54 -12 88q0 87 45 144.5t111 57.5q44 0 75 -27.5t33 -70.5l-58 -15q-6 60 -52 60q-39 0 -61.5 -45t-22.5 -106q0 -27 9 -86h71l-10 -45h-56v-20q-1 -78 -68 -139q11 6 22 6q18 0 41 -11.5t37 -11.5q30 0 53 28l17 -49q-36 -38 -82 -38q-29 0 -59 15
t-47 15q-25 0 -64 -28l-13 47q40 23 70 66t30 94q0 8 -2 26h-69z" />
    <glyph glyph-name="yen" unicode="&#xa5;" horiz-adv-x="328" 
d="M146 0h-72l25 114h-110l9 45h111l16 73h-110l10 45h92l-51 273h75l36 -243l142 243h77l-172 -273h94l-11 -45h-110l-16 -73h110l-10 -45h-110z" />
    <glyph glyph-name="brokenbar" unicode="&#xa6;" horiz-adv-x="177" 
d="M134 -20h-51v316h51v-316zM134 371h-51v316h51v-316z" />
    <glyph glyph-name="section" unicode="&#xa7;" horiz-adv-x="310" 
d="M298 324q0 -106 -101 -143q46 -43 46 -102q0 -66 -41 -113t-104 -47q-97 0 -136 64l43 43q28 -53 89 -53q34 0 57.5 28t23.5 68q0 23 -13.5 43.5t-32.5 37t-37.5 34.5t-32 44.5t-13.5 59.5q0 50 30.5 87t82.5 46q-58 49 -58 113q0 61 40.5 102t95.5 41q85 0 124 -58
l-41 -39q-27 45 -80 45q-30 0 -51 -24.5t-21 -58.5q0 -28 20.5 -54.5t44.5 -45t44.5 -50t20.5 -68.5zM233 309q0 46 -36 82q-86 -11 -86 -92q0 -49 50 -90q72 27 72 100z" />
    <glyph glyph-name="dieresis" unicode="&#xa8;" horiz-adv-x="264" 
d="M325 608q0 -19 -14.5 -33.5t-33.5 -14.5q-17 0 -28 11t-11 27q0 20 15 34.5t34 14.5q16 0 27 -11t11 -28zM185 608q0 -19 -14.5 -33.5t-34.5 -14.5q-17 0 -28 11t-11 27q0 20 14.5 34.5t34.5 14.5q16 0 27.5 -11.5t11.5 -27.5z" />
    <glyph glyph-name="copyright" unicode="&#xa9;" horiz-adv-x="778" 
d="M754 334q0 -142 -101.5 -243.5t-244.5 -101.5q-142 0 -243 101t-101 244t101 244t243 101q143 0 244.5 -101.5t101.5 -243.5zM724 334q0 130 -93 222.5t-223 92.5t-222 -92.5t-92 -222.5t92 -222.5t222 -92.5t223 92.5t93 222.5zM505 200l19 -27q-62 -52 -134 -52
q-88 0 -140 53t-52 133q0 100 72 170.5t164 70.5q108 0 155 -80l-29 -21q-37 69 -127 69q-75 0 -137 -60.5t-62 -147.5q0 -65 43.5 -110t112.5 -45q68 0 115 47z" />
    <glyph glyph-name="ordfeminine" unicode="&#xaa;" horiz-adv-x="291" 
d="M217 605q-37 0 -62 -60.5t-25 -117.5q0 -66 41 -66q30 0 60 54l30 141q-2 20 -14.5 34.5t-29.5 14.5zM280 640h53l-69 -314h-53l9 43q-32 -51 -73 -51q-71 0 -71 106q0 76 36 150t93 74q21 0 39.5 -13.5t26.5 -36.5z" />
    <glyph glyph-name="guillemotleft" unicode="&#xab;" horiz-adv-x="325" 
d="M135 63h-56l-50 180l130 177h60l-133 -181zM252 63h-56l-50 180l130 177h60l-133 -181z" />
    <glyph glyph-name="logicalnot" unicode="&#xac;" 
d="M396 456l-54 -244h-52l43 195h-269l12 49h320z" />
    <glyph glyph-name="registered" unicode="&#xae;" horiz-adv-x="494" 
d="M508 465q0 -88 -62.5 -150t-150.5 -62t-149.5 62t-61.5 150t62 150t150 62t150 -61.5t62 -150.5zM480 465q0 77 -54 130.5t-131 53.5t-130 -53.5t-53 -130.5q0 -76 53.5 -130t129.5 -54t130.5 54t54.5 130zM367 343h-38l-42 96h-46l-21 -96h-32l53 243h92q30 0 50 -17.5
t20 -46.5q0 -35 -24.5 -58.5t-55.5 -23.5zM369 518q0 19 -11.5 29.5t-29.5 10.5h-61l-20 -90h68q22 0 38 14.5t16 35.5z" />
    <glyph glyph-name="macron" unicode="&#xaf;" horiz-adv-x="248" 
d="M324 591h-247l10 45h247z" />
    <glyph glyph-name="degree" unicode="&#xb0;" horiz-adv-x="288" 
d="M333 556q0 -49 -35.5 -84t-85.5 -35t-84.5 34.5t-34.5 84.5t35 85.5t84 35.5q50 0 85.5 -35.5t35.5 -85.5zM288 556q0 31 -22.5 53.5t-53.5 22.5t-52.5 -22.5t-21.5 -53.5t21 -52.5t52 -21.5t54 22t23 52z" />
    <glyph glyph-name="plusminus" unicode="&#xb1;" 
d="M364 313h-133l-35 -155h-53l34 155h-133l11 49h133l33 148h53l-32 -148h133zM305 45h-320l10 49h320z" />
    <glyph glyph-name="twosuperior" unicode="&#xb2;" horiz-adv-x="264" 
d="M280 421h-210l10 44q130 130 170 179.5t40 87.5q0 24 -13.5 36.5t-34.5 12.5q-41 0 -77 -49l-30 36q49 59 110 59q44 0 73 -24t29 -67q0 -47 -38 -95.5t-148 -159.5l-5 -5l-4.5 -4.5l-4.5 -4.5h143z" />
    <glyph glyph-name="threesuperior" unicode="&#xb3;" horiz-adv-x="264" 
d="M307 543q0 -47 -33 -88t-88 -41q-40 0 -69.5 19t-40.5 51l44 30q15 -54 64 -54q32 0 50 29.5t18 64.5q0 25 -13.5 37.5t-33.5 12.5q-21 0 -27 -1l10 46q5 -1 30 -1q30 0 50.5 23.5t20.5 60.5q0 22 -13 35.5t-36 13.5q-40 0 -74 -46l-30 32q45 60 109 60q46 0 73 -23.5
t27 -66.5q0 -37 -24 -72t-64 -42q50 -15 50 -80z" />
    <glyph glyph-name="acute" unicode="&#xb4;" horiz-adv-x="146" 
d="M247 700l-132 -144h-48l111 144h69z" />
    <glyph glyph-name="mu" unicode="&#xb5;" 
d="M29 -184h-68l148 667h68l-82 -372q-13 -64 31 -64q26 0 54.5 23.5t46.5 55.5l80 357h68l-107 -483h-68l13 63q-23 -33 -56.5 -54t-67.5 -21q-8 0 -22 2z" />
    <glyph glyph-name="paragraph" unicode="&#xb6;" horiz-adv-x="449" 
d="M298 -100h-43l161 724h-90l-161 -724h-43l94 423q-57 0 -97 44.5t-40 111.5q0 73 56.5 130.5t137.5 57.5h195z" />
    <glyph glyph-name="periodcentered" unicode="&#xb7;" horiz-adv-x="227" 
d="M108 193q-20 0 -33.5 13.5t-13.5 33.5q0 23 17 39.5t40 16.5q20 0 33.5 -14t13.5 -33q0 -23 -17 -39.5t-40 -16.5z" />
    <glyph glyph-name="cedilla" unicode="&#xb8;" horiz-adv-x="165" 
d="M-8 -190q-51 0 -81 36l25 33q21 -32 58 -32q22 0 36 15t14 35q0 27 -25 27q-14 0 -28 -14l-27 17l50 84h43l-42 -67q10 10 24 10q21 0 34.5 -15.5t13.5 -39.5q0 -37 -27.5 -63t-67.5 -26z" />
    <glyph glyph-name="onesuperior" unicode="&#xb9;" horiz-adv-x="215" 
d="M202 421h-56l70 324l-68 -60l-28 34l121 102h49z" />
    <glyph glyph-name="ordmasculine" unicode="&#xba;" horiz-adv-x="289" 
d="M173 318q-48 0 -72 29.5t-24 82.5q0 43 14.5 91.5t49 87.5t79.5 39q96 0 96 -112q0 -44 -14.5 -92t-48.5 -87t-80 -39zM175 363q40 0 63.5 62.5t23.5 112.5q0 64 -44 64q-40 0 -63.5 -62t-23.5 -112q0 -65 44 -65z" />
    <glyph glyph-name="guillemotright" unicode="&#xbb;" horiz-adv-x="325" 
d="M73 420h56l50 -180l-130 -177h-60l133 181zM190 420h56l50 -180l-130 -177h-60l133 181z" />
    <glyph glyph-name="onequarter" unicode="&#xbc;" horiz-adv-x="576" 
d="M536 667l-421 -667h-41l421 667h41zM528 102h-35l-23 -102h-55l22 102h-141l10 46l184 252h68l-56 -252h36zM447 148l41 184l-133 -184h92zM168 267h-56l70 324l-68 -60l-28 34l121 102h49z" />
    <glyph glyph-name="onehalf" unicode="&#xbd;" horiz-adv-x="608" 
d="M536 667l-421 -667h-41l421 667h41zM531 0h-210l10 44q130 130 170 179.5t40 87.5q0 24 -13.5 36.5t-34.5 12.5q-41 0 -77 -49l-30 36q49 59 110 59q44 0 73 -24t29 -67q0 -47 -38 -95.5t-148 -159.5l-14 -14h143zM168 267h-56l70 324l-68 -60l-28 34l121 102h49z" />
    <glyph glyph-name="threequarters" unicode="&#xbe;" horiz-adv-x="612" 
d="M572 667l-421 -667h-41l421 667h41zM564 102h-35l-23 -102h-55l22 102h-141l10 46l184 252h68l-56 -252h36zM483 148l41 184l-133 -184h92zM273 389q0 -47 -33 -88t-88 -41q-40 0 -69.5 19t-40.5 51l44 30q15 -54 64 -54q32 0 50 29.5t18 64.5q0 25 -13.5 37.5
t-33.5 12.5q-21 0 -27 -1l10 46q5 -1 30 -1q30 0 50.5 23.5t20.5 60.5q0 22 -13 35.5t-36 13.5q-40 0 -74 -46l-30 32q45 60 109 60q46 0 73 -23.5t27 -66.5q0 -37 -24 -72t-64 -42q50 -15 50 -80z" />
    <glyph glyph-name="questiondown" unicode="&#xbf;" horiz-adv-x="273" 
d="M-28 87q0 38 16 69t38.5 52t45 39t38.5 39.5t16 44.5q0 18 -11 34l59 25q13 -23 13 -52q0 -30 -14.5 -56t-35.5 -44.5t-41.5 -37t-35 -43.5t-14.5 -54q0 -24 12 -39.5t38 -15.5q30 0 58 25l28 -44q-49 -41 -103 -41q-48 0 -77.5 27t-29.5 72zM184 560q20 0 33.5 -14
t13.5 -33q0 -23 -17 -39.5t-40 -16.5q-20 0 -33.5 13.5t-13.5 33.5q0 23 17 39.5t40 16.5z" />
    <glyph glyph-name="Agrave" unicode="&#xc0;" horiz-adv-x="364" 
d="M340 728h-46l-68 144h68zM303 0h-75l7 153h-143l-60 -153h-79l278 667h87zM240 220l17 357l-140 -357h123z" />
    <glyph glyph-name="Aacute" unicode="&#xc1;" horiz-adv-x="364" 
d="M417 872l-132 -144h-48l111 144h69zM303 0h-75l7 153h-143l-60 -153h-79l278 667h87zM240 220l17 357l-140 -357h123z" />
    <glyph glyph-name="Acircumflex" unicode="&#xc2;" horiz-adv-x="364" 
d="M390 728h-40l-38 105l-80 -105h-43l97 144h67zM303 0h-75l7 153h-143l-60 -153h-79l278 667h87zM240 220l17 357l-140 -357h123z" />
    <glyph glyph-name="Atilde" unicode="&#xc3;" horiz-adv-x="364" 
d="M327 726q-21 0 -30.5 15t-10.5 32.5t-7 32.5t-19 15q-31 0 -50 -89h-40q30 134 96 134q21 0 31 -15t11 -32.5t7 -32.5t19 -15q30 0 50 89h41q-31 -134 -98 -134zM303 0h-75l7 153h-143l-60 -153h-79l278 667h87zM240 220l17 357l-140 -357h123z" />
    <glyph glyph-name="Adieresis" unicode="&#xc4;" horiz-adv-x="364" 
d="M412 777q0 -19 -14.5 -33.5t-33.5 -14.5q-17 0 -28 11t-11 27q0 19 14.5 34t34.5 15q16 0 27 -11t11 -28zM272 777q0 -19 -14.5 -33.5t-34.5 -14.5q-17 0 -28 11t-11 27q0 19 15 34t34 15q17 0 28 -11t11 -28zM303 0h-75l7 153h-143l-60 -153h-79l278 667h87zM240 220
l17 357l-140 -357h123z" />
    <glyph glyph-name="Aring" unicode="&#xc5;" horiz-adv-x="364" 
d="M290 691q-32 0 -53 21.5t-21 54.5q0 37 28 64.5t65 27.5q32 0 52.5 -21.5t20.5 -54.5q0 -37 -27.5 -64.5t-64.5 -27.5zM293 727q22 0 38 15.5t16 37.5q0 18 -11.5 30.5t-29.5 12.5q-22 0 -37.5 -15.5t-15.5 -37.5q0 -18 11 -30.5t29 -12.5zM303 0h-75l7 153h-143
l-60 -153h-79l278 667h87zM240 220l17 357l-140 -357h123z" />
    <glyph glyph-name="AE" unicode="&#xc6;" horiz-adv-x="554" 
d="M457 0h-247l33 153h-123l-80 -153h-80l364 667h280l-14 -67h-172l-50 -225h165l-15 -67h-165l-54 -241h173zM258 220l77 348l-181 -348h104z" />
    <glyph glyph-name="Ccedilla" unicode="&#xc7;" horiz-adv-x="390" 
d="M127 -190q-51 0 -81 36l25 33q21 -32 58 -32q22 0 36 15t14 35q0 27 -25 27q-14 0 -28 -14l-27 17l39 66q-99 25 -99 184q0 61 15 141t44 163.5t81 140t117 56.5q62 0 93 -42.5t37 -111.5l-70 -14q-9 100 -66 100q-40 0 -74.5 -51.5t-55 -124.5t-32 -143.5t-11.5 -116.5
q0 -118 63 -118q47 0 94 85l60 -28q-66 -124 -157 -125l-27 -44q10 10 24 10q21 0 34.5 -15.5t13.5 -39.5q0 -37 -27.5 -63t-67.5 -26z" />
    <glyph glyph-name="Egrave" unicode="&#xc8;" horiz-adv-x="352" 
d="M348 728h-46l-68 144h68zM257 0h-248l147 667h248l-15 -67h-172l-50 -225h165l-15 -67h-165l-53 -241h172z" />
    <glyph glyph-name="Eacute" unicode="&#xc9;" horiz-adv-x="352" 
d="M424 872l-132 -144h-48l111 144h69zM257 0h-248l147 667h248l-15 -67h-172l-50 -225h165l-15 -67h-165l-53 -241h172z" />
    <glyph glyph-name="Ecircumflex" unicode="&#xca;" horiz-adv-x="352" 
d="M397 728h-40l-38 105l-80 -105h-43l97 144h67zM257 0h-248l147 667h248l-15 -67h-172l-50 -225h165l-15 -67h-165l-53 -241h172z" />
    <glyph glyph-name="Edieresis" unicode="&#xcb;" horiz-adv-x="352" 
d="M419 777q0 -19 -14.5 -33.5t-33.5 -14.5q-17 0 -28 11t-11 27q0 19 15 34t34 15q16 0 27 -11t11 -28zM279 777q0 -19 -14.5 -33.5t-34.5 -14.5q-17 0 -28 11t-11 27q0 19 14.5 34t34.5 15q16 0 27.5 -11t11.5 -28zM257 0h-248l147 667h248l-15 -67h-172l-50 -225h165
l-15 -67h-165l-53 -241h172z" />
    <glyph glyph-name="Igrave" unicode="&#xcc;" horiz-adv-x="201" 
d="M259 728h-46l-68 144h68zM84 0h-75l147 667h75z" />
    <glyph glyph-name="Iacute" unicode="&#xcd;" horiz-adv-x="201" 
d="M337 872l-132 -144h-48l111 144h69zM84 0h-75l147 667h75z" />
    <glyph glyph-name="Icircumflex" unicode="&#xce;" horiz-adv-x="201" 
d="M309 728h-40l-38 105l-80 -105h-43l97 144h67zM84 0h-75l147 667h75z" />
    <glyph glyph-name="Idieresis" unicode="&#xcf;" horiz-adv-x="201" 
d="M333 777q0 -19 -14.5 -33.5t-33.5 -14.5q-17 0 -28 11t-11 27q0 19 15 34t34 15q16 0 27 -11t11 -28zM193 777q0 -19 -14.5 -33.5t-34.5 -14.5q-17 0 -28 11t-11 27q0 19 14.5 34t34.5 15q16 0 27.5 -11t11.5 -28zM84 0h-75l147 667h75z" />
    <glyph glyph-name="Eth" unicode="&#xd0;" horiz-adv-x="446" 
d="M155 0h-127l66 302h-60l14 63h60l67 302h124q58 0 99 -50t41 -150q0 -30 -5.5 -72t-17.5 -96t-34.5 -105.5t-52 -95.5t-75 -71t-99.5 -27zM254 302h-84l-52 -235h50q50 0 90 50t61 120.5t31.5 131t10.5 97.5q0 68 -21.5 101t-54.5 33h-49l-52 -235h84z" />
    <glyph glyph-name="Ntilde" unicode="&#xd1;" horiz-adv-x="436" 
d="M367 726q-21 0 -30.5 15t-10.5 32.5t-7 32.5t-19 15q-31 0 -50 -89h-40q30 134 96 134q21 0 31 -15t11 -32.5t7 -32.5t19 -15q30 0 50 89h41q-31 -134 -98 -134zM319 0h-72l-55 489l-108 -489h-75l147 667h75l54 -479l106 479h75z" />
    <glyph glyph-name="Ograve" unicode="&#xd2;" horiz-adv-x="434" 
d="M374 728h-46l-68 144h68zM175 -12q-69 0 -102.5 52.5t-33.5 136.5q0 46 9 107t29.5 131t49 128t73 96.5t96.5 38.5q69 0 103 -53.5t34 -137.5q0 -59 -15.5 -139t-44.5 -163t-81.5 -140t-116.5 -57zM180 56q38 0 72.5 50t56 121t34 142t12.5 121q0 120 -65 120
q-39 0 -73 -50t-55 -121.5t-33 -143t-12 -121.5q0 -118 63 -118z" />
    <glyph glyph-name="Oacute" unicode="&#xd3;" horiz-adv-x="434" 
d="M452 872l-132 -144h-48l111 144h69zM175 -12q-69 0 -102.5 52.5t-33.5 136.5q0 46 9 107t29.5 131t49 128t73 96.5t96.5 38.5q69 0 103 -53.5t34 -137.5q0 -59 -15.5 -139t-44.5 -163t-81.5 -140t-116.5 -57zM180 56q38 0 72.5 50t56 121t34 142t12.5 121q0 120 -65 120
q-39 0 -73 -50t-55 -121.5t-33 -143t-12 -121.5q0 -118 63 -118z" />
    <glyph glyph-name="Ocircumflex" unicode="&#xd4;" horiz-adv-x="434" 
d="M425 728h-40l-38 105l-80 -105h-43l97 144h67zM175 -12q-69 0 -102.5 52.5t-33.5 136.5q0 46 9 107t29.5 131t49 128t73 96.5t96.5 38.5q69 0 103 -53.5t34 -137.5q0 -59 -15.5 -139t-44.5 -163t-81.5 -140t-116.5 -57zM180 56q38 0 72.5 50t56 121t34 142t12.5 121
q0 120 -65 120q-39 0 -73 -50t-55 -121.5t-33 -143t-12 -121.5q0 -118 63 -118z" />
    <glyph glyph-name="Otilde" unicode="&#xd5;" horiz-adv-x="434" 
d="M369 726q-21 0 -30.5 15t-10.5 32.5t-7 32.5t-19 15q-31 0 -50 -89h-40q30 134 96 134q21 0 31 -15t11 -32.5t7 -32.5t19 -15q30 0 50 89h41q-31 -134 -98 -134zM175 -12q-69 0 -102.5 52.5t-33.5 136.5q0 46 9 107t29.5 131t49 128t73 96.5t96.5 38.5q69 0 103 -53.5
t34 -137.5q0 -59 -15.5 -139t-44.5 -163t-81.5 -140t-116.5 -57zM180 56q38 0 72.5 50t56 121t34 142t12.5 121q0 120 -65 120q-39 0 -73 -50t-55 -121.5t-33 -143t-12 -121.5q0 -118 63 -118z" />
    <glyph glyph-name="Odieresis" unicode="&#xd6;" horiz-adv-x="434" 
d="M447 777q0 -19 -14.5 -33.5t-33.5 -14.5q-17 0 -28 11t-11 27q0 19 15 34t34 15q16 0 27 -11t11 -28zM307 777q0 -19 -14.5 -33.5t-34.5 -14.5q-17 0 -28 11t-11 27q0 19 14.5 34t34.5 15q16 0 27.5 -11t11.5 -28zM175 -12q-69 0 -102.5 52.5t-33.5 136.5q0 46 9 107
t29.5 131t49 128t73 96.5t96.5 38.5q69 0 103 -53.5t34 -137.5q0 -59 -15.5 -139t-44.5 -163t-81.5 -140t-116.5 -57zM180 56q38 0 72.5 50t56 121t34 142t12.5 121q0 120 -65 120q-39 0 -73 -50t-55 -121.5t-33 -143t-12 -121.5q0 -118 63 -118z" />
    <glyph glyph-name="multiply" unicode="&#xd7;" 
d="M286 194l-82 105l-132 -109l-30 39l133 108l-83 105l39 32l82 -105l132 109l31 -39l-132 -108l81 -105z" />
    <glyph glyph-name="Oslash" unicode="&#xd8;" horiz-adv-x="434" 
d="M175 -12q-66 0 -101 49l-23 -37h-52l53 83q-13 40 -13 94q0 46 9 107t29.5 131t49 128t73 96.5t96.5 38.5q65 0 101 -51l26 40h51l-55 -86q14 -39 14 -94q0 -59 -15.5 -139t-44.5 -163t-81.5 -140t-116.5 -57zM290 610q-38 0 -71.5 -47t-54.5 -116t-33.5 -138.5
t-13.5 -122.5l232 365q-14 59 -59 59zM180 56q37 0 71 47t55.5 116t34 138.5t14.5 121.5l-233 -366q13 -57 58 -57z" />
    <glyph glyph-name="Ugrave" unicode="&#xd9;" horiz-adv-x="437" 
d="M376 728h-46l-68 144h68zM181 -12q-62 0 -100.5 37.5t-38.5 102.5q0 24 5 46l109 493h75l-110 -498q-4 -28 -4 -36q0 -38 19.5 -58t51.5 -20q36 0 58.5 26.5t35.5 87.5l110 498h75l-109 -495q-41 -184 -177 -184z" />
    <glyph glyph-name="Uacute" unicode="&#xda;" horiz-adv-x="437" 
d="M453 872l-132 -144h-48l111 144h69zM181 -12q-62 0 -100.5 37.5t-38.5 102.5q0 24 5 46l109 493h75l-110 -498q-4 -28 -4 -36q0 -38 19.5 -58t51.5 -20q36 0 58.5 26.5t35.5 87.5l110 498h75l-109 -495q-41 -184 -177 -184z" />
    <glyph glyph-name="Ucircumflex" unicode="&#xdb;" horiz-adv-x="437" 
d="M426 728h-40l-38 105l-80 -105h-43l97 144h67zM181 -12q-62 0 -100.5 37.5t-38.5 102.5q0 24 5 46l109 493h75l-110 -498q-4 -28 -4 -36q0 -38 19.5 -58t51.5 -20q36 0 58.5 26.5t35.5 87.5l110 498h75l-109 -495q-41 -184 -177 -184z" />
    <glyph glyph-name="Udieresis" unicode="&#xdc;" horiz-adv-x="437" 
d="M448 777q0 -19 -14.5 -33.5t-33.5 -14.5q-17 0 -28 11t-11 27q0 19 14.5 34t34.5 15q16 0 27 -11t11 -28zM308 777q0 -19 -14.5 -33.5t-34.5 -14.5q-17 0 -28 11t-11 27q0 19 15 34t34 15q17 0 28 -11t11 -28zM181 -12q-62 0 -100.5 37.5t-38.5 102.5q0 24 5 46l109 493
h75l-110 -498q-4 -28 -4 -36q0 -38 19.5 -58t51.5 -20q36 0 58.5 26.5t35.5 87.5l110 498h75l-109 -495q-41 -184 -177 -184z" />
    <glyph glyph-name="Yacute" unicode="&#xdd;" horiz-adv-x="372" 
d="M424 872l-132 -144h-48l111 144h69zM170 0h-76l63 283l-65 384h78l38 -307l175 307h83l-234 -384z" />
    <glyph glyph-name="Thorn" unicode="&#xde;" horiz-adv-x="387" 
d="M84 0h-75l147 667h75l-26 -121h49q59 0 95 -42t36 -109q0 -42 -12.5 -83.5t-36.5 -79t-65.5 -61t-94.5 -23.5h-59zM183 216q56 0 89 53t33 121q0 41 -18 65t-50 24h-47l-58 -263h51z" />
    <glyph glyph-name="germandbls" unicode="&#xdf;" horiz-adv-x="618" 
d="M109 -12q-87 0 -131 63l45 50q31 -50 83 -50q34 0 57 30t23 74q0 30 -18 60.5t-39 52t-39 56t-18 72.5q0 69 43.5 117.5t105.5 48.5q70 0 111 -50l-42 -51q-25 38 -69 38q-29 0 -51.5 -28t-22.5 -64q0 -27 18 -56t40 -51.5t40 -61t18 -82.5q0 -65 -45 -116.5t-109 -51.5z
M418 -12q-87 0 -131 63l45 50q31 -50 83 -50q34 0 57 30t23 74q0 30 -18 60.5t-39 52t-39 56t-18 72.5q0 69 43.5 117.5t105.5 48.5q70 0 111 -50l-42 -51q-25 38 -69 38q-29 0 -51.5 -28t-22.5 -64q0 -27 18 -56t40 -51.5t40 -61t18 -82.5q0 -65 -45 -116.5t-109 -51.5z
" />
    <glyph glyph-name="agrave" unicode="&#xe0;" horiz-adv-x="314" 
d="M184 550h81l-10 -550h-73l6 124h-114l-48 -124h-75zM193 187l13 275l-110 -275h97zM288 606h-46l-68 144h68z" />
    <glyph glyph-name="aacute" unicode="&#xe1;" horiz-adv-x="314" 
d="M184 550h81l-10 -550h-73l6 124h-114l-48 -124h-75zM193 187l13 275l-110 -275h97zM365 750l-132 -144h-48l111 144h69z" />
    <glyph glyph-name="acircumflex" unicode="&#xe2;" horiz-adv-x="314" 
d="M184 550h81l-10 -550h-73l6 124h-114l-48 -124h-75zM193 187l13 275l-110 -275h97zM338 606h-40l-38 105l-80 -105h-43l97 144h67z" />
    <glyph glyph-name="atilde" unicode="&#xe3;" horiz-adv-x="314" 
d="M184 550h81l-10 -550h-73l6 124h-114l-48 -124h-75zM193 187l13 275l-110 -275h97zM282 604q-21 0 -30.5 15t-10.5 32.5t-7 32.5t-19 15q-31 0 -50 -89h-40q30 134 96 134q21 0 31 -15t11 -32.5t7 -32.5t19 -15q30 0 50 89h41q-31 -134 -98 -134z" />
    <glyph glyph-name="adieresis" unicode="&#xe4;" horiz-adv-x="314" 
d="M184 550h81l-10 -550h-73l6 124h-114l-48 -124h-75zM193 187l13 275l-110 -275h97zM361 663q0 -19 -14.5 -33.5t-33.5 -14.5q-17 0 -28 11t-11 27q0 19 15 34t34 15q16 0 27 -11t11 -28zM221 663q0 -19 -14.5 -33.5t-34.5 -14.5q-17 0 -28 11t-11 27q0 19 14.5 34
t34.5 15q16 0 27.5 -11t11.5 -28z" />
    <glyph glyph-name="aring" unicode="&#xe5;" horiz-adv-x="314" 
d="M184 550h81l-10 -550h-73l6 124h-114l-48 -124h-75zM193 187l13 275l-110 -275h97zM245 604q-32 0 -53 21.5t-21 54.5q0 37 28 64.5t65 27.5q32 0 52.5 -21.5t20.5 -54.5q0 -37 -27.5 -64.5t-64.5 -27.5zM248 640q22 0 38 15.5t16 37.5q0 18 -11.5 30.5t-29.5 12.5
q-22 0 -37.5 -15.5t-15.5 -37.5q0 -18 11 -30.5t29 -12.5z" />
    <glyph glyph-name="ae" unicode="&#xe6;" horiz-adv-x="471" 
d="M380 0h-219l27 124h-103l-65 -124h-75l306 550h250l-14 -63h-147l-39 -174h141l-13 -62h-142l-41 -188h147zM202 187l61 276l-147 -276h86z" />
    <glyph glyph-name="ccedilla" unicode="&#xe7;" horiz-adv-x="351" 
d="M101 -190q-51 0 -81 36l25 33q21 -32 58 -32q22 0 36 15t14 35q0 27 -25 27q-14 0 -28 -14l-27 17l40 67q-85 26 -85 161q0 48 13 113t37.5 133t69.5 114.5t100 46.5q51 0 81 -31.5t36 -86.5l-63 -14q-8 69 -55 69q-34 0 -63.5 -41t-46.5 -99t-26.5 -112.5t-9.5 -90.5
q0 -105 59 -105q25 0 42 17.5t36 55.5l55 -26q-29 -54 -60.5 -82t-77.5 -28h-4l-27 -44q10 10 24 10q21 0 34.5 -15.5t13.5 -39.5q0 -37 -27.5 -63t-67.5 -26z" />
    <glyph glyph-name="egrave" unicode="&#xe8;" horiz-adv-x="313" 
d="M222 0h-220l121 550h220l-14 -63h-148l-39 -174h142l-14 -62h-142l-41 -188h148zM298 606h-46l-68 144h68z" />
    <glyph glyph-name="eacute" unicode="&#xe9;" horiz-adv-x="313" 
d="M222 0h-220l121 550h220l-14 -63h-148l-39 -174h142l-14 -62h-142l-41 -188h148zM375 750l-132 -144h-48l111 144h69z" />
    <glyph glyph-name="ecircumflex" unicode="&#xea;" horiz-adv-x="313" 
d="M222 0h-220l121 550h220l-14 -63h-148l-39 -174h142l-14 -62h-142l-41 -188h148zM346 606h-40l-38 105l-80 -105h-43l97 144h67z" />
    <glyph glyph-name="edieresis" unicode="&#xeb;" horiz-adv-x="313" 
d="M222 0h-220l121 550h220l-14 -63h-148l-39 -174h142l-14 -62h-142l-41 -188h148zM372 663q0 -19 -14.5 -33.5t-33.5 -14.5q-17 0 -28 11t-11 27q0 19 14.5 34t34.5 15q16 0 27 -11t11 -28zM232 663q0 -19 -14.5 -33.5t-34.5 -14.5q-17 0 -28 11t-11 27q0 19 15 34t34 15
q17 0 28 -11t11 -28z" />
    <glyph glyph-name="igrave" unicode="&#xec;" horiz-adv-x="182" 
d="M73 0h-71l121 550h71zM222 606h-46l-68 144h68z" />
    <glyph glyph-name="iacute" unicode="&#xed;" horiz-adv-x="182" 
d="M73 0h-71l121 550h71zM299 750l-132 -144h-48l111 144h69z" />
    <glyph glyph-name="icircumflex" unicode="&#xee;" horiz-adv-x="182" 
d="M73 0h-71l121 550h71zM272 606h-40l-38 105l-80 -105h-43l97 144h67z" />
    <glyph glyph-name="idieresis" unicode="&#xef;" horiz-adv-x="182" 
d="M73 0h-71l121 550h71zM297 663q0 -19 -14.5 -33.5t-33.5 -14.5q-17 0 -28 11t-11 27q0 19 15 34t34 15q16 0 27 -11t11 -28zM157 663q0 -19 -14.5 -33.5t-34.5 -14.5q-17 0 -28 11t-11 27q0 19 14.5 34t34.5 15q16 0 27.5 -11t11.5 -28z" />
    <glyph glyph-name="eth" unicode="&#xf0;" horiz-adv-x="415" 
d="M156 0h-131l56 254h-58l12 52h57l54 244h87q159 0 159 -174q0 -55 -13.5 -116t-40 -121.5t-74.5 -99.5t-108 -39zM165 63q46 0 83 57.5t53.5 127t16.5 127.5q0 60 -23 86t-69 26h-22l-40 -181h67l-12 -52h-67l-42 -191h55z" />
    <glyph glyph-name="ntilde" unicode="&#xf1;" horiz-adv-x="385" 
d="M275 0h-72l-41 400l-89 -400h-71l121 550h76l40 -390l86 390h71zM315 604q-21 0 -30.5 15t-10.5 32.5t-7 32.5t-19 15q-31 0 -50 -89h-40q30 134 96 134q21 0 31 -15t11 -32.5t7 -32.5t19 -15q30 0 50 89h41q-31 -134 -98 -134z" />
    <glyph glyph-name="ograve" unicode="&#xf2;" horiz-adv-x="393" 
d="M155 -12q-60 0 -93.5 42t-33.5 123q0 43 11.5 105.5t35 133.5t69.5 120.5t105 49.5q60 0 94 -42t34 -123q0 -32 -6.5 -79t-23 -105.5t-41 -108t-64 -83t-87.5 -33.5zM158 51q37 0 67 44.5t46 106t24.5 114.5t8.5 82q0 101 -57 101q-36 0 -66.5 -44.5t-46.5 -106t-25 -115
t-9 -81.5q0 -101 58 -101zM327 606h-46l-68 144h68z" />
    <glyph glyph-name="oacute" unicode="&#xf3;" horiz-adv-x="393" 
d="M155 -12q-60 0 -93.5 42t-33.5 123q0 43 11.5 105.5t35 133.5t69.5 120.5t105 49.5q60 0 94 -42t34 -123q0 -32 -6.5 -79t-23 -105.5t-41 -108t-64 -83t-87.5 -33.5zM158 51q37 0 67 44.5t46 106t24.5 114.5t8.5 82q0 101 -57 101q-36 0 -66.5 -44.5t-46.5 -106t-25 -115
t-9 -81.5q0 -101 58 -101zM404 750l-132 -144h-48l111 144h69z" />
    <glyph glyph-name="ocircumflex" unicode="&#xf4;" horiz-adv-x="393" 
d="M155 -12q-60 0 -93.5 42t-33.5 123q0 43 11.5 105.5t35 133.5t69.5 120.5t105 49.5q60 0 94 -42t34 -123q0 -32 -6.5 -79t-23 -105.5t-41 -108t-64 -83t-87.5 -33.5zM158 51q37 0 67 44.5t46 106t24.5 114.5t8.5 82q0 101 -57 101q-36 0 -66.5 -44.5t-46.5 -106t-25 -115
t-9 -81.5q0 -101 58 -101zM377 606h-40l-38 105l-80 -105h-43l97 144h67z" />
    <glyph glyph-name="otilde" unicode="&#xf5;" horiz-adv-x="393" 
d="M155 -12q-60 0 -93.5 42t-33.5 123q0 43 11.5 105.5t35 133.5t69.5 120.5t105 49.5q60 0 94 -42t34 -123q0 -32 -6.5 -79t-23 -105.5t-41 -108t-64 -83t-87.5 -33.5zM158 51q37 0 67 44.5t46 106t24.5 114.5t8.5 82q0 101 -57 101q-36 0 -66.5 -44.5t-46.5 -106t-25 -115
t-9 -81.5q0 -101 58 -101zM320 604q-21 0 -30.5 15t-10.5 32.5t-7 32.5t-19 15q-31 0 -50 -89h-40q30 134 96 134q21 0 31 -15t11 -32.5t7 -32.5t19 -15q30 0 50 89h41q-31 -134 -98 -134z" />
    <glyph glyph-name="odieresis" unicode="&#xf6;" horiz-adv-x="393" 
d="M155 -12q-60 0 -93.5 42t-33.5 123q0 43 11.5 105.5t35 133.5t69.5 120.5t105 49.5q60 0 94 -42t34 -123q0 -32 -6.5 -79t-23 -105.5t-41 -108t-64 -83t-87.5 -33.5zM158 51q37 0 67 44.5t46 106t24.5 114.5t8.5 82q0 101 -57 101q-36 0 -66.5 -44.5t-46.5 -106t-25 -115
t-9 -81.5q0 -101 58 -101zM400 663q0 -19 -14.5 -33.5t-33.5 -14.5q-17 0 -28 11t-11 27q0 19 14.5 34t34.5 15q16 0 27 -11t11 -28zM260 663q0 -19 -14.5 -33.5t-34.5 -14.5q-17 0 -28 11t-11 27q0 19 15 34t34 15q17 0 28 -11t11 -28z" />
    <glyph glyph-name="divide" unicode="&#xf7;" horiz-adv-x="374" 
d="M360 313h-316l11 49h316zM172 149q-17 0 -28.5 11.5t-11.5 28.5q0 19 14 33t34 14q17 0 28.5 -11.5t11.5 -28.5q0 -20 -14 -33.5t-34 -13.5zM236 435q-17 0 -28.5 11.5t-11.5 28.5q0 19 14 33t34 14q16 0 28 -12t12 -28q0 -20 -14 -33.5t-34 -13.5z" />
    <glyph glyph-name="oslash" unicode="&#xf8;" horiz-adv-x="393" 
d="M155 -12q-61 0 -94 42l-21 -30h-49l49 71q-12 33 -12 82q0 43 11.5 105.5t35 133.5t69.5 120.5t105 49.5q64 0 97 -46l23 34h49l-52 -75q11 -35 11 -78q0 -32 -6.5 -79t-23 -105.5t-41 -108t-64 -83t-87.5 -33.5zM247 499q-35 0 -64.5 -42t-46.5 -101.5t-26 -112
t-10 -85.5l199 291q-11 50 -52 50zM158 51q34 0 62.5 39t45 96.5t26 108.5t11.5 88l-197 -287q12 -45 52 -45z" />
    <glyph glyph-name="ugrave" unicode="&#xf9;" horiz-adv-x="389" 
d="M158 -12q-63 0 -95.5 29t-32.5 81q0 33 8 65l85 387h71l-88 -400q-5 -23 -5 -36q0 -63 59 -63q31 0 50 25t31 79l87 395h72l-86 -385q-20 -88 -55.5 -132.5t-100.5 -44.5zM325 606h-46l-68 144h68z" />
    <glyph glyph-name="uacute" unicode="&#xfa;" horiz-adv-x="389" 
d="M158 -12q-63 0 -95.5 29t-32.5 81q0 33 8 65l85 387h71l-88 -400q-5 -23 -5 -36q0 -63 59 -63q31 0 50 25t31 79l87 395h72l-86 -385q-20 -88 -55.5 -132.5t-100.5 -44.5zM403 750l-132 -144h-48l111 144h69z" />
    <glyph glyph-name="ucircumflex" unicode="&#xfb;" horiz-adv-x="389" 
d="M158 -12q-63 0 -95.5 29t-32.5 81q0 33 8 65l85 387h71l-88 -400q-5 -23 -5 -36q0 -63 59 -63q31 0 50 25t31 79l87 395h72l-86 -385q-20 -88 -55.5 -132.5t-100.5 -44.5zM375 606h-40l-38 105l-80 -105h-43l97 144h67z" />
    <glyph glyph-name="udieresis" unicode="&#xfc;" horiz-adv-x="389" 
d="M158 -12q-63 0 -95.5 29t-32.5 81q0 33 8 65l85 387h71l-88 -400q-5 -23 -5 -36q0 -63 59 -63q31 0 50 25t31 79l87 395h72l-86 -385q-20 -88 -55.5 -132.5t-100.5 -44.5zM399 663q0 -19 -14.5 -33.5t-33.5 -14.5q-17 0 -28 11t-11 27q0 19 15 34t34 15q16 0 27 -11
t11 -28zM259 663q0 -19 -14.5 -33.5t-34.5 -14.5q-17 0 -28 11t-11 27q0 19 14.5 34t34.5 15q16 0 27.5 -11t11.5 -28z" />
    <glyph glyph-name="yacute" unicode="&#xfd;" horiz-adv-x="328" 
d="M146 0h-72l51 233l-59 317h75l36 -243l142 243h77l-199 -317zM372 750l-132 -144h-48l111 144h69z" />
    <glyph glyph-name="thorn" unicode="&#xfe;" horiz-adv-x="333" 
d="M73 0h-71l121 550h71l-20 -94h25q61 0 93.5 -32t32.5 -95q0 -78 -45.5 -142t-123.5 -64h-56zM143 185h16q41 0 66 44t25 94q0 70 -64 70h-26l-46 -208h29z" />
    <glyph glyph-name="ydieresis" unicode="&#xff;" horiz-adv-x="328" 
d="M146 0h-72l51 233l-59 317h75l36 -243l142 243h77l-199 -317zM369 663q0 -19 -14.5 -33.5t-33.5 -14.5q-17 0 -28 11t-11 27q0 19 15 34t34 15q16 0 27 -11t11 -28zM229 663q0 -19 -14.5 -33.5t-34.5 -14.5q-17 0 -28 11t-11 27q0 19 14.5 34t34.5 15q16 0 27.5 -11
t11.5 -28z" />
    <glyph glyph-name="dotlessi" unicode="&#x131;" horiz-adv-x="183" 
d="M73 0h-71l121 550h71z" />
    <glyph glyph-name="Lslash" unicode="&#x141;" horiz-adv-x="346" 
d="M22 248l14 66l62 32l71 321h75l-61 -278l68 35l-14 -66l-69 -35l-56 -256h172l-14 -67h-248l61 279z" />
    <glyph glyph-name="lslash" unicode="&#x142;" horiz-adv-x="314" 
d="M10 193l14 66l59 30l58 261h71l-49 -219l71 36l-14 -67l-71 -36l-44 -201h148l-13 -63h-220l49 223z" />
    <glyph glyph-name="OE" unicode="&#x152;" horiz-adv-x="594" 
d="M497 0h-247l14 66q-48 -78 -113 -78q-53 0 -82.5 51t-29.5 138q0 48 9.5 110t30.5 131t50 126.5t74 95t97 37.5q67 0 83 -76l14 66h247l-14 -67h-172l-50 -225h165l-15 -67h-165l-54 -241h173zM289 178l68 311q-1 120 -61 120q-42 0 -77.5 -49.5t-56.5 -120.5t-33 -142
t-12 -123q0 -118 58 -118q30 0 60 32t54 90z" />
    <glyph glyph-name="oe" unicode="&#x153;" horiz-adv-x="527" 
d="M436 0h-219l10 46q-34 -58 -89 -58q-53 0 -81.5 43t-28.5 116q0 52 12.5 118t36.5 135t68 115.5t98 46.5q30 0 53 -18.5t29 -54.5l13 61h219l-13 -63h-149l-38 -174h142l-14 -62h-142l-41 -188h148zM251 155l53 241q0 103 -57 103q-35 0 -65 -42.5t-46.5 -102t-26 -114.5
t-9.5 -88q0 -101 58 -101q29 0 50.5 26t42.5 78z" />
    <glyph glyph-name="Scaron" unicode="&#x160;" horiz-adv-x="343" 
d="M333 728h-67l-36 144h39l37 -105l81 105h44zM125 -12q-44 0 -82.5 19.5t-59.5 49.5l49 56q14 -26 39.5 -41.5t53.5 -15.5q42 0 73.5 36t31.5 96q0 35 -22 72t-48 65t-48 71t-22 89q0 80 53 136.5t123 56.5q80 0 123 -55l-44 -56q-29 43 -80 43q-42 0 -68.5 -33.5
t-26.5 -80.5q0 -26 14 -53.5t34.5 -53t41 -53t34.5 -63.5t14 -74q0 -89 -52.5 -150t-130.5 -61z" />
    <glyph glyph-name="scaron" unicode="&#x161;" horiz-adv-x="309" 
d="M109 -12q-87 0 -131 63l45 50q31 -50 83 -50q34 0 57 30t23 74q0 30 -18 60.5t-39 52t-39 56t-18 72.5q0 69 43.5 117.5t105.5 48.5q70 0 111 -50l-42 -51q-25 38 -69 38q-29 0 -51.5 -28t-22.5 -64q0 -27 18 -56t40 -51.5t40 -61t18 -82.5q0 -65 -45 -116.5t-109 -51.5z
M274 606h-67l-36 144h39l37 -105l81 105h44z" />
    <glyph glyph-name="Ydieresis" unicode="&#x178;" horiz-adv-x="372" 
d="M420 777q0 -19 -14.5 -33.5t-33.5 -14.5q-17 0 -28 11t-11 27q0 19 14.5 34t34.5 15q16 0 27 -11t11 -28zM280 777q0 -19 -14.5 -33.5t-34.5 -14.5q-17 0 -28 11t-11 27q0 19 15 34t34 15q17 0 28 -11t11 -28zM170 0h-76l63 283l-65 384h78l38 -307l175 307h83l-234 -384
z" />
    <glyph glyph-name="Zcaron" unicode="&#x17d;" horiz-adv-x="340" 
d="M312 728h-67l-36 144h39l37 -105l81 105h44zM253 0h-274l14 66l298 534h-179l14 67h267l-13 -63l-301 -537h188z" />
    <glyph glyph-name="zcaron" unicode="&#x17e;" horiz-adv-x="292" 
d="M211 0h-238l12 56l247 431h-152l14 63h232l-12 -55l-248 -432h159zM258 606h-67l-36 144h39l37 -105l81 105h44z" />
    <glyph glyph-name="florin" unicode="&#x192;" horiz-adv-x="322" 
d="M50 -119h-77l74 334h-38v54h50l38 170q15 65 44.5 93.5t74.5 28.5q40 0 62 -27l-33 -53q-7 13 -25 13t-29 -14.5t-19 -50.5l-36 -160h70v-54h-82z" />
    <glyph glyph-name="circumflex" unicode="&#x2c6;" horiz-adv-x="201" 
d="M270 556h-40l-38 105l-80 -105h-43l97 144h67z" />
    <glyph glyph-name="caron" unicode="&#x2c7;" horiz-adv-x="201" 
d="M204 556h-67l-36 144h39l37 -105l81 105h44z" />
    <glyph glyph-name="breve" unicode="&#x2d8;" horiz-adv-x="238" 
d="M323 624q-58 -60 -133 -60t-106 60l40 28q9 -20 29.5 -31.5t44.5 -11.5t49.5 11.5t41.5 31.5z" />
    <glyph glyph-name="dotaccent" unicode="&#x2d9;" horiz-adv-x="104" 
d="M180 624q0 -19 -15 -34t-35 -15q-17 0 -28.5 11.5t-11.5 28.5q0 20 15 34.5t35 14.5q17 0 28.5 -11.5t11.5 -28.5z" />
    <glyph glyph-name="ring" unicode="&#x2da;" horiz-adv-x="165" 
d="M160 554q-32 0 -53 21.5t-21 54.5q0 37 28 64.5t65 27.5q32 0 52.5 -21.5t20.5 -54.5q0 -37 -27.5 -64.5t-64.5 -27.5zM163 590q22 0 38 15.5t16 37.5q0 18 -11.5 30.5t-29.5 12.5q-22 0 -37.5 -15.5t-15.5 -37.5q0 -18 11 -30.5t29 -12.5z" />
    <glyph glyph-name="ogonek" unicode="&#x2db;" horiz-adv-x="139" 
d="M24 -116l31 -22q-28 -48 -73 -48q-28 0 -45 15t-17 43q0 84 105 150l28 -22q-91 -56 -91 -123q0 -26 25 -26t37 33z" />
    <glyph glyph-name="tilde" unicode="&#x2dc;" horiz-adv-x="227" 
d="M227 554q-21 0 -30.5 15t-10.5 32.5t-7 32.5t-19 15q-31 0 -50 -89h-40q30 134 96 134q21 0 31 -15t11 -32.5t7 -32.5t19 -15q30 0 50 89h41q-31 -134 -98 -134z" />
    <glyph glyph-name="hungarumlaut" unicode="&#x2dd;" horiz-adv-x="232" 
d="M216 700l-109 -144h-40l88 144h61zM333 700l-110 -144h-40l88 144h62z" />
    <glyph glyph-name="pi" unicode="&#x3c0;" horiz-adv-x="348" 
d="M237 0h-70l97 438h-95l-97 -438h-70l97 438h-38l13 62h312l-13 -62h-40z" />
    <glyph glyph-name="endash" unicode="&#x2013;" horiz-adv-x="460" 
d="M423 212h-400l13 60h400z" />
    <glyph glyph-name="emdash" unicode="&#x2014;" horiz-adv-x="640" 
d="M603 212h-580l13 60h580z" />
    <glyph glyph-name="quoteleft" unicode="&#x2018;" horiz-adv-x="228" 
d="M121 520q0 44 32.5 89t78.5 68l29 -30q-28 -15 -51.5 -38t-30.5 -46h8q16 0 28 -12.5t12 -30.5q0 -22 -17 -38.5t-39 -16.5t-36 14t-14 41z" />
    <glyph glyph-name="quoteright" unicode="&#x2019;" horiz-adv-x="228" 
d="M252 622q0 -44 -33 -89t-79 -69l-28 31q28 15 51 38t31 46h-8q-16 0 -28 12t-12 30q0 23 17 39.5t39 16.5t36 -14.5t14 -40.5z" />
    <glyph glyph-name="quotesinglbase" unicode="&#x201a;" horiz-adv-x="228" 
d="M122 38q0 -44 -32.5 -89t-78.5 -68l-29 30q28 15 51.5 38t30.5 46h-8q-16 0 -28 12t-12 31q0 22 17 38.5t40 16.5q21 0 35 -14.5t14 -40.5z" />
    <glyph glyph-name="quotedblleft" unicode="&#x201c;" horiz-adv-x="382" 
d="M275 520q0 45 33 89.5t79 67.5l28 -30q-28 -15 -51 -38t-31 -46h8q16 0 28 -12.5t12 -30.5q0 -22 -17 -38.5t-39 -16.5t-36 14t-14 41zM122 520q0 44 32.5 89t78.5 68l29 -30q-28 -15 -51.5 -38t-30.5 -46h8q16 0 28 -12.5t12 -30.5q0 -22 -17 -38.5t-39 -16.5t-36 14
t-14 41z" />
    <glyph glyph-name="quotedblright" unicode="&#x201d;" horiz-adv-x="382" 
d="M252 622q0 -44 -33 -89t-79 -69l-28 31q28 15 51 38t31 46h-8q-16 0 -28 12t-12 30q0 23 17 39.5t39 16.5t36 -14.5t14 -40.5zM405 622q0 -44 -33 -89t-79 -69l-28 31q28 15 51 38t31 46h-8q-16 0 -28 12t-12 30q0 23 17 39.5t39 16.5t36 -14.5t14 -40.5z" />
    <glyph glyph-name="quotedblbase" unicode="&#x201e;" horiz-adv-x="382" 
d="M122 38q0 -44 -32.5 -89t-78.5 -68l-29 30q28 15 51.5 38t30.5 46h-8q-16 0 -28 12t-12 31q0 22 17 38.5t40 16.5q21 0 35 -14.5t14 -40.5zM276 38q0 -44 -33 -89t-79 -68l-29 30q29 15 52 38t30 46h-7q-17 0 -28.5 12t-11.5 31q0 22 16.5 38.5t39.5 16.5
q21 0 35.5 -14.5t14.5 -40.5z" />
    <glyph glyph-name="dagger" unicode="&#x2020;" horiz-adv-x="261" 
d="M302 532l-88 4l-43 -209h-45l50 209l-90 -4l9 41l89 -3l20 107h45l-28 -107l90 3z" />
    <glyph glyph-name="daggerdbl" unicode="&#x2021;" horiz-adv-x="261" 
d="M311 573l-9 -41l-88 4l-48 -215l90 4l-9 -41l-88 3l-21 -107h-45l28 107l-90 -3l9 41l88 -4l48 215l-90 -4l9 41l88 -3l21 107h45l-28 -107z" />
    <glyph glyph-name="bullet" unicode="&#x2022;" horiz-adv-x="358" 
d="M286 253q0 -47 -35.5 -81.5t-83.5 -34.5q-41 0 -68 27.5t-27 67.5q0 47 35.5 81.5t83.5 34.5q41 0 68 -27t27 -68z" />
    <glyph glyph-name="ellipsis" unicode="&#x2026;" horiz-adv-x="680" 
d="M63 -10q-19 0 -33 14t-14 33q0 23 17 39.5t40 16.5q19 0 33 -13.5t14 -33.5q0 -23 -17 -39.5t-40 -16.5zM290 -10q-20 0 -33.5 14t-13.5 33q0 23 17 39.5t40 16.5q20 0 33.5 -13.5t13.5 -33.5q0 -23 -17 -39.5t-40 -16.5zM517 -10q-20 0 -33.5 13.5t-13.5 33.5
q0 23 16.5 39.5t39.5 16.5q20 0 33.5 -13.5t13.5 -33.5q0 -23 -16.5 -39.5t-39.5 -16.5z" />
    <glyph glyph-name="perthousand" unicode="&#x2030;" horiz-adv-x="691" 
d="M270 459q0 -64 -36.5 -117t-89.5 -53q-42 0 -64.5 27t-22.5 76q0 64 36.5 117t89.5 53q42 0 64.5 -27t22.5 -76zM441 550l-366 -550h-40l365 550h41zM222 460q0 61 -40 61q-32 0 -54.5 -40t-22.5 -90q0 -61 41 -61q31 0 53.5 40.5t22.5 89.5zM420 158q0 -63 -36.5 -116
t-89.5 -53q-42 0 -65 27t-23 76q0 64 36.5 117t90.5 53q41 0 64 -27.5t23 -76.5zM372 160q0 61 -41 61q-31 0 -53.5 -40.5t-22.5 -89.5q0 -61 41 -61q31 0 53.5 40t22.5 90zM647 158q0 -64 -36 -116.5t-90 -52.5q-41 0 -64 27t-23 76q0 64 36.5 117t89.5 53q42 0 64.5 -27
t22.5 -77zM599 160q0 61 -40 61q-31 0 -53.5 -40t-22.5 -90q0 -61 40 -61q31 0 53.5 40t22.5 90z" />
    <glyph glyph-name="guilsinglleft" unicode="&#x2039;" horiz-adv-x="208" 
d="M135 63h-56l-50 180l130 177h60l-133 -181z" />
    <glyph glyph-name="guilsinglright" unicode="&#x203a;" horiz-adv-x="208" 
d="M73 420h56l50 -180l-130 -177h-60l133 181z" />
    <glyph glyph-name="fraction" unicode="&#x2044;" horiz-adv-x="115" 
d="M308 667l-421 -667h-41l421 667h41z" />
    <glyph glyph-name="Euro" unicode="&#x20ac;" horiz-adv-x="360" 
d="M237 315h-103q-11 -45 -17 -81h102l-8 -42h-99q-2 -14 -2 -36q0 -105 59 -105q25 0 42 17.5t36 55.5l55 -26q-29 -54 -60.5 -82t-77.5 -28q-127 0 -127 167q0 23 1 37h-33l9 42h29q6 36 17 81h-29l10 42h31q28 89 74.5 147t110.5 58q51 0 81 -31.5t36 -86.5l-63 -14
q-8 69 -55 69q-64 0 -111 -142h102z" />
    <glyph glyph-name="trademark" unicode="&#x2122;" horiz-adv-x="374" 
d="M384 447h-28l40 182l-95 -182h-8l-15 182l-40 -182h-28l48 220h43l10 -157l78 157h43zM217 641h-42l-43 -194h-28l43 194h-42l5 26h112z" />
    <glyph glyph-name="Omega" unicode="&#x2126;" horiz-adv-x="419" 
d="M-9 0l14 67h82q-45 60 -45 161q0 59 16.5 133.5t45.5 146.5t77 121t104 49q141 0 141 -183q0 -129 -51 -246t-124 -182h83l-14 -67h-132l14 67q58 45 101.5 184t43.5 239q0 63 -14.5 91t-48.5 28q-38 0 -72.5 -48t-55 -117t-32.5 -137.5t-12 -117.5q0 -84 25 -122l-8 -39
l-6 -28h-132z" />
    <glyph glyph-name="partialdiff" unicode="&#x2202;" horiz-adv-x="382" 
d="M154 -12q-130 0 -130 160q0 68 21.5 143t67 132.5t102.5 57.5q32 0 54 -19t29 -53q-1 59 -13.5 136t-30.5 122l69 22q43 -131 43 -273q0 -65 -12 -135.5t-35.5 -138t-66.5 -111t-98 -43.5zM155 49q39 0 70 54t45 116.5t14 109.5q0 36 -15 64t-46 28q-30 0 -55.5 -32
t-40.5 -77.5t-23.5 -90.5t-8.5 -76q0 -96 60 -96z" />
    <glyph glyph-name="Delta" unicode="&#x2206;" horiz-adv-x="364" 
d="M303 0h-350l278 667h87zM233 67l24 510l-201 -510h177z" />
    <glyph glyph-name="product" unicode="&#x220f;" horiz-adv-x="426" 
d="M280 -90h-76l153 690h-132l-153 -690h-75l153 690h-53l14 67h390l-15 -67h-54z" />
    <glyph glyph-name="summation" unicode="&#x2211;" horiz-adv-x="326" 
d="M197 600l49 -307l-186 -316h173l-14 -67h-251l15 70l186 319l-48 301l14 67h251l-15 -67h-174z" />
    <glyph glyph-name="minus" unicode="&#x2212;" 
d="M363 310h-320l11 49h320z" />
    <glyph glyph-name="radical" unicode="&#x221a;" horiz-adv-x="465" 
d="M235 0h-55l-1 318l-117 -24l1 48l163 33l-3 -304l267 596h50z" />
    <glyph glyph-name="infinity" unicode="&#x221e;" horiz-adv-x="479" 
d="M129 172q-41 0 -63.5 31t-22.5 81q0 81 40 148t100 67q36 0 59 -31t29 -78q51 109 119 109q41 0 63.5 -31t22.5 -82q0 -81 -40 -147.5t-100 -66.5q-37 0 -60 31t-29 78q-50 -109 -118 -109zM335 221q41 0 66 51.5t25 105.5q0 34 -13 53t-33 19q-43 0 -98 -118
q7 -111 53 -111zM140 221q19 0 38.5 20t31 40.5t28.5 56.5q-7 112 -53 112q-41 0 -66.5 -51.5t-25.5 -105.5q0 -34 13 -53t34 -19z" />
    <glyph glyph-name="integral" unicode="&#x222b;" horiz-adv-x="234" 
d="M-30 -100h-29l11 51h30q43 0 55 53l146 659q23 105 120 105h30l-11 -51h-31q-43 0 -54 -54l-146 -659q-23 -104 -121 -104z" />
    <glyph glyph-name="approxequal" unicode="&#x2248;" 
d="M21 212l13 53q29 -19 75 -19q34 0 80.5 16.5t86.5 16.5q42 0 77 -15l-11 -52q-31 18 -77 18q-33 0 -80 -16.5t-87 -16.5q-42 0 -77 15zM64 404l12 52q30 -18 76 -18q33 0 79.5 16.5t86.5 16.5q43 0 78 -15l-12 -53q-31 19 -77 19q-33 0 -80 -16.5t-87 -16.5q-41 0 -76 15
z" />
    <glyph glyph-name="notequal" unicode="&#x2260;" 
d="M77 93h-43l75 119h-88l12 49h107l93 146h-169l12 49h188l75 118h44l-75 -118h88l-11 -49h-108l-93 -146h169l-11 -49h-189z" />
    <glyph glyph-name="lessequal" unicode="&#x2264;" 
d="M330 161l-287 149l11 49l353 149l-14 -61l-284 -116l233 -114zM305 45h-320l10 49h320z" />
    <glyph glyph-name="greaterequal" unicode="&#x2265;" 
d="M363 310l-353 -149l14 62l285 114l-234 115l12 56l287 -149zM305 45h-320l10 49h320z" />
    <glyph glyph-name="lozenge" unicode="&#x25ca;" horiz-adv-x="375" 
d="M144 0h-21l-84 334l231 333h21l85 -333zM142 45l197 293l-67 284l-196 -292z" />
    <glyph glyph-name="apple" unicode="&#xf8ff;" horiz-adv-x="667" 
d="M207 153l17 76h-84q-34 0 -59 -25.5t-25 -59.5q0 -29 18.5 -47.5t46.5 -18.5q34 0 56 20t30 55zM270 438l14 66q2 7 2 20q0 30 -18 47.5t-48 17.5q-35 0 -59.5 -24t-24.5 -58q0 -31 19 -50t51 -19h64zM269 265h137l31 137h-137zM570 160q0 31 -19.5 50t-51.5 19h-63
l-15 -66q-2 -12 -2 -20q0 -30 18.5 -47.5t48.5 -17.5q35 0 59.5 24t24.5 58zM649 523q0 29 -18 47.5t-46 18.5q-34 0 -56 -20t-30 -55l-17 -76h83q34 0 59 25.5t25 59.5zM607 160q0 -48 -39 -83t-89 -35q-42 0 -70 28t-28 70q0 14 3 29l14 60h-137l-19 -84
q-11 -46 -45 -74.5t-80 -28.5q-41 0 -70 28t-29 69q0 49 38 87.5t87 38.5h88l31 137h-63q-45 0 -72.5 29.5t-27.5 75.5q0 48 38.5 83t88.5 35q42 0 70 -28t28 -70q0 -14 -3 -29l-14 -60h137l19 84q11 46 45 74.5t80 28.5q42 0 71 -28t29 -69q0 -50 -38 -88t-87 -38h-88
l-31 -137h60q46 0 74.5 -29.5t28.5 -75.5z" />
    </font>
</defs>
</svg>
